<svg xmlns="http://www.w3.org/2000/svg" width="16" height="16"><path fill="#8a8b8a" d="M4.96 4.907a2.453 2.453 0 1 0-2.453-2.453v.007a2.447 2.447 0 0 0 2.447 2.447h.007zm0-3.84a1.387 1.387 0 1 1-1.387 1.387v-.009c0-.761.617-1.377 1.377-1.377h.01zm9.013 13.946l-1.947-2.96a.497.497 0 0 0-.399-.24h-.001l-4.773-.373-1.627-3.76a.814.814 0 0 1 .029-.751l-.002.004a.905.905 0 0 1 .58-.452l.006-.001a.853.853 0 0 1 .985.607l.001.006.747 1.92a.57.57 0 0 0 .697.319l-.004.001 2.373-.88a.541.541 0 1 0-.377-1.012l.004-.001-1.893.693-.533-1.413a1.896 1.896 0 0 0-2.226-1.278l.013-.002a1.927 1.927 0 0 0-1.518 2.279l-.002-.012a4.489 4.489 0 0 0-2.116 3.808 4.485 4.485 0 0 0 8.774 1.316l.008-.032.507.027 1.787 2.747c.095.145.257.24.44.24h.014-.001.011c.104 0 .202-.03.285-.081l-.002.001a.523.523 0 0 0 .159-.722l.001.002zm-7.493-.08a3.423 3.423 0 0 1-1.984-6.206l.01-.007 1.493 3.44c.079.18.25.306.452.32h.002l3.253.24a3.459 3.459 0 0 1-3.223 2.213h-.004z"/></svg>