<svg xmlns="http://www.w3.org/2000/svg" width="16" height="16"><path fill="#8a8b8a" d="M13.161 5.734a.382.382 0 0 0-.382.382v7.454a1.53 1.53 0 0 1-1.529 1.529H2.457A1.53 1.53 0 0 1 .928 13.57V4.394a1.53 1.53 0 0 1 1.529-1.529h6.892a.382.382 0 1 0 0-.764h-.012.001-6.881A2.297 2.297 0 0 0 .163 4.395v9.176a2.296 2.296 0 0 0 2.293 2.294h8.793a2.296 2.296 0 0 0 2.294-2.293V6.117a.382.382 0 0 0-.382-.382zm2.293-3.633h-1.911V.371a.382.382 0 1 0-.764 0v.012-.001 1.719h-1.887a.382.382 0 0 0 0 .764h1.888v1.731a.382.382 0 1 0 .764 0v-.012.001-1.719h1.912a.382.382 0 0 0 0-.764h-.001z"/><path fill="#8a8b8a" d="M7.065 8.667c-1.003-.29-1.285-.803-1.221-1.153.057-.318.417-.638 1.09-.638l.053-.001c.493 0 .906.343 1.013.804l.001.007a.428.428 0 0 0 .489.299h-.003a.362.362 0 0 0 .319-.431v.002A1.79 1.79 0 0 0 7.299 6.17l-.009-.001v-.644a.39.39 0 0 0-.778-.001v.645c-.778.129-1.375.598-1.49 1.228-.116.639.279 1.539 1.784 1.975.792.229 1.221.597 1.151.984-.06.332-.515.677-1.171.677-1.124 0-1.205-.54-1.208-.641a.399.399 0 0 0-.397-.37l-.026.001h.001l-.022-.001a.39.39 0 0 0-.389.371v.001c0 .448.34 1.271 1.767 1.371v.522a.39.39 0 0 0 .778.001v-.57c.778-.16 1.365-.643 1.473-1.245.054-.291.106-1.283-1.7-1.805z"/></svg>