<svg xmlns="http://www.w3.org/2000/svg" width="16" height="16"><path fill="#ed1b2e" d="M15.365 11.666l-5.351-9.513C9.475 1.194 8.728.667 7.911.667s-1.564.528-2.103 1.486L.457 11.666c-.538.956-.602 1.878-.181 2.597s1.257 1.116 2.353 1.116h10.565c1.097 0 1.933-.397 2.353-1.116s.356-1.642-.181-2.597zm-.479 2.383c-.26.443-.915.69-1.693.69H2.628c-.777 0-1.103-.256-1.607-.69s-.381-1.282 0-1.959l5.376-9.513c.379-.675 1.022-1.235 1.513-1.235s1.216.561 1.596 1.235l5.38 9.513c.152.284.242.621.242.98s-.09.696-.248.991l.006-.011z"/><path fill="#f68b1f" d="M8.679 10.34V5.131a.482.482 0 0 0-.964 0v.013-.001 5.196a.482.482 0 0 0 .964 0v-.001zm.199 1.95a.682.682 0 1 0-.682.682.682.682 0 0 0 .682-.682z"/></svg>