<svg xmlns="http://www.w3.org/2000/svg" width="16" height="16"><path fill="#fff" d="M15.692 11.744l-5.465-9.716C9.676 1.049 8.913.51 8.079.51s-1.597.539-2.148 1.518L.466 11.744c-.549.976-.615 1.918-.185 2.653s1.283 1.14 2.403 1.14h10.79c1.12 0 1.974-.405 2.403-1.14s.364-1.677-.185-2.653zm-.49 2.434c-.265.452-.935.704-1.729.704H2.684c-.794 0-1.127-.261-1.642-.704s-.389-1.31 0-2.001l5.491-9.715C6.92 1.773 7.577 1.2 8.078 1.2s1.242.573 1.63 1.261l5.494 9.715c.156.29.247.635.247 1.001s-.091.71-.253 1.012l.006-.012z"/><path fill="#fff" d="M8.863 10.389v-5.32a.492.492 0 1 0-.984 0v.014-.001 5.307a.492.492 0 0 0 .984 0v-.001zm.204 1.992a.697.697 0 1 0-.697.697.697.697 0 0 0 .697-.697z"/></svg>