<!-- Generated by IcoMoon.io -->
<svg version="1.1" xmlns="http://www.w3.org/2000/svg" width="16" height="16" viewBox="0 0 16 16">
<title>arrow-left-blue</title>
<path fill="#0097d0" d="M0.165 7.627l4.8-4.8c0.094-0.094 0.225-0.153 0.369-0.153 0.288 0 0.522 0.234 0.522 0.522 0 0.144-0.058 0.275-0.153 0.369v0l-3.911 3.912h12c0.291 0 0.527 0.236 0.527 0.527s-0.236 0.527-0.527 0.527h-12l3.914 3.914c0.098 0.093 0.158 0.224 0.158 0.369s-0.061 0.276-0.158 0.369l-0 0c-0.098 0.093-0.23 0.151-0.376 0.151s-0.279-0.057-0.377-0.151l-4.8-4.8c-0.093-0.091-0.151-0.218-0.151-0.358 0-0.007 0-0.013 0-0.020l-0 0.001c0.006-0.148 0.067-0.281 0.163-0.379l-0 0z"></path>
</svg>
