<svg xmlns="http://www.w3.org/2000/svg" width="16" height="16"><path fill="#fff" d="M8 16a8 8 0 1 0-8-8 8.01 8.01 0 0 0 8 8zm0-1.231h-.004a6.726 6.726 0 0 1-4.786-1.992c1.224-1.23 2.919-1.991 4.791-1.991s3.567.761 4.791 1.991a6.727 6.727 0 0 1-4.786 1.991h-.005zM5.538 7.094a2.461 2.461 0 1 1 2.461 2.461 2.467 2.467 0 0 1-2.462-2.461zM8 1.231h.004a6.765 6.765 0 0 1 5.561 10.618l.015-.022a7.984 7.984 0 0 0-3.149-1.892l-.057-.016a3.693 3.693 0 1 0-4.754-.004l.006.005a8.022 8.022 0 0 0-3.208 1.91l.002-.002a6.71 6.71 0 0 1-1.189-3.831 6.765 6.765 0 0 1 6.765-6.765h.005z"/></svg>