<svg xmlns="http://www.w3.org/2000/svg" width="16" height="16"><path fill="#f68b1f" d="M6.372 1.167c-.567 0-1.067.467-1.067 1.067v9.6c0 .467.3.867.7 1v1.5c0 .2.167.367.367.367h1.767a.37.37 0 0 0 .367-.367v-1.433h4.267v1.433c0 .2.167.367.367.367h1.767a.37.37 0 0 0 .367-.367v-1.5c.433-.167.7-.567.7-1v-9.6c0-.6-.467-1.067-1.067-1.067-.2 0-.367.167-.367.367s.167.367.367.367c.2 0 .367.167.367.333v1.433H6.007V2.234c0-.2.167-.367.333-.367h7.133c.2 0 .367-.167.367-.367s-.133-.333-.333-.333H6.374zM9.739 2.4c-.2 0-.333.2-.333.367 0 .2.167.333.367.333h1.767c.2 0 .367-.167.367-.367s-.167-.367-.367-.367h-1.8v.033zM6.006 4.367h4.3v3.567h-4.3V4.367zm5 0h4.267v3.567h-4.267V4.367zm-5 4.3h9.267v3.2c0 .2-.167.367-.333.367H6.373c-.2 0-.367-.167-.367-.333V8.668zm1.8.533c-.7 0-1.233.567-1.233 1.233s.567 1.233 1.233 1.233 1.233-.567 1.233-1.233c0-.7-.567-1.233-1.233-1.233zm5.7 0c-.7 0-1.233.567-1.233 1.233s.567 1.233 1.233 1.233 1.233-.567 1.233-1.233c0-.7-.533-1.233-1.233-1.233zm-5.7.7c.3 0 .533.233.533.533s-.233.533-.533.533-.533-.233-.533-.533c0-.3.233-.533.533-.533zm5.7 0c.3 0 .533.233.533.533s-.233.533-.533.533-.533-.233-.533-.533c0-.3.233-.533.533-.533zm-6.767 3.033h1.067V14H6.739v-1.067zm6.767 0h1.067V14h-1.067v-1.067z"/><path fill="#0097d0" d="M1.7 9.341v4.667h-.566c-.2 0-.367.167-.333.367 0 .2.167.367.367.333h1.8c.2 0 .367-.167.367-.367s-.167-.367-.367-.367h-.567V9.307c.9-.133-1.633-.133-.7.033z"/><path fill="#0097d0" d="M1.7 14.008h-.566c-.2 0-.367.167-.333.367s.167.367.367.333h1.8c.2 0 .367-.167.367-.367s-.167-.367-.367-.367H1.701z"/><path fill="#fff" d="M1 5.508h2.1c.567 0 1 .433 1 1v2.1c0 .567-.433 1-1 1H1c-.567 0-1-.433-1-1v-2.1c0-.567.433-1 1-1z"/><path fill="#0097d0" d="M3.1 9.608H1c-.567 0-1-.433-1-1v-2.1c0-.567.433-1 1-1h2.1c.567 0 1 .433 1 1v2.1c0 .567-.433 1-1 1zM1 6.174c-.2 0-.333.133-.333.333v2.1c0 .2.133.333.333.333h2.1c.2 0 .333-.133.333-.333v-2.1c0-.2-.133-.333-.333-.333H1z"/></svg>