<svg xmlns="http://www.w3.org/2000/svg" width="14" height="16"><path fill="#ed1b2e" d="M5.539 2.45a.357.357 0 0 0-.362-.362 3.184 3.184 0 0 0-2.25.936 3.183 3.183 0 0 0-.936 2.255.362.362 0 1 0 .725-.001c.001-.632.243-1.263.725-1.745s1.112-.723 1.742-.725a.357.357 0 0 0 .355-.357z"/><path fill="#ed1b2e" d="M.732 5.289a4.451 4.451 0 0 1 1.307-3.151A4.448 4.448 0 0 1 5.184.831a.362.362 0 0 0 0-.725 5.165 5.165 0 0 0-3.652 1.518 5.165 5.165 0 0 0-1.518 3.66.36.36 0 0 0 .719.006z"/><path fill="#0053a0" d="M11.69 4.528H6.403c-1.1 0-1.762.662-1.762 1.765V16h.881v-1.322h7.05v1.324h.881V6.293c0-1.103-.66-1.765-1.763-1.765zm.881 9.266h-7.05v-7.5a.948.948 0 0 1 .878-.883h5.29a.949.949 0 0 1 .881.879v.003zm-5.287-.883v-.882h-.881v.882zm4.406-.882h-.881v.882h.881zm-7.931-.883h10.574v-.882H3.759zm5.728-.22V7.617h-.881v3.309zM4.64 8.059h8.812v-.882H4.64z"/></svg>