<svg xmlns="http://www.w3.org/2000/svg" width="16" height="16"><path fill="#8a8b8a" d="M13.63 2.123h-2.123V.55a.551.551 0 0 0-1.1-.001v1.574H5.288V.55a.551.551 0 0 0-1.1-.001v1.574H2.065A2.072 2.072 0 0 0-.002 4.189v9.744A2.072 2.072 0 0 0 2.064 16h11.564a2.072 2.072 0 0 0 2.067-2.066V4.19a2.072 2.072 0 0 0-2.066-2.066zm-11.563 1.1H4.19v.759a.551.551 0 0 0 1.1.001v-.76h5.099v.759a.551.551 0 0 0 1.1.001v-.76h2.123a.971.971 0 0 1 .967.966v1.839H1.1V4.189a.97.97 0 0 1 .967-.967zM13.63 14.901H2.067a.971.971 0 0 1-.967-.966V7.147h13.497v6.787a.97.97 0 0 1-.967.967z"/><path fill="#8a8b8a" d="M4.227 7.943a1.915 1.915 0 0 0 0 3.83h.021A1.893 1.893 0 0 0 6.141 9.88v-.011c0-1.06-.856-1.919-1.914-1.925h-.001zm0 2.749a.825.825 0 0 1-.815-.825v-.032a.815.815 0 0 1 1.63 0v.024-.001.009a.825.825 0 0 1-.814.825h-.001zm.816 1.915H3.375a.55.55 0 1 0 0 1.1h.02-.001 1.668a.55.55 0 1 0 0-1.1h-.02.001zm3.907 0H7.28a.55.55 0 1 0 0 1.1h.02-.001H8.95a.551.551 0 0 0 .001-1.1H8.95zm0-3.28H7.28a.55.55 0 1 0 0 1.1h.02-.001H8.95a.551.551 0 0 0 .001-1.1H8.95zm3.903 3.28h-1.649a.551.551 0 0 0-.001 1.1h1.669a.55.55 0 1 0 0-1.1h-.02.001zm0-3.28h-1.649a.551.551 0 0 0-.001 1.1h1.669a.55.55 0 1 0 0-1.1h-.02.001z"/></svg>