<svg xmlns="http://www.w3.org/2000/svg" width="16" height="16"><path fill="#0097d0" d="M3.645 7.655h-.001a1.323 1.323 0 1 0 1.323 1.323v-.001a1.324 1.324 0 0 0-1.323-1.322zm0 1.935a.612.612 0 1 1 .613-.613.614.614 0 0 1-.613.613zm8.725-1.935a1.323 1.323 0 1 0 1.323 1.323v-.001a1.325 1.325 0 0 0-1.324-1.322zm0 1.935a.612.612 0 1 1 .613-.613.614.614 0 0 1-.613.613zm-3.055.284H6.6a.356.356 0 0 0 0 .712h.011-.001 2.704a.356.356 0 0 0 .001-.71h-.001zm.898-1.142H5.702a.356.356 0 0 0 0 .712h.011-.001 4.511a.356.356 0 0 0 0-.712h-.011.001zm0-1.141H5.702a.356.356 0 0 0 0 .712h.011-.001 4.511a.356.356 0 0 0 0-.712h-.011.001z"/><path fill="#a5cf4c" d="M14.892 4.905h-1.248l-.531-1.171a2.965 2.965 0 0 0-2.691-1.733H5.594A2.961 2.961 0 0 0 2.91 3.716l-.008.018-.528 1.163H1.116a1.118 1.118 0 0 0 0 2.234h.254a3.867 3.867 0 0 0-.254 1.376v4.503a1.07 1.07 0 0 0 1.069 1.07h.792a1.07 1.07 0 0 0 1.07-1.068v-1.151h7.919v1.15c.001.591.48 1.069 1.07 1.07h.792a1.07 1.07 0 0 0 1.068-1.068V8.509a3.886 3.886 0 0 0-.266-1.411l.009.027h.25a1.11 1.11 0 0 0 0-2.218zM3.55 4.027a2.254 2.254 0 0 1 2.044-1.316h4.828a2.25 2.25 0 0 1 2.038 1.302l.006.014 1.151 2.535q-1.895-.111-3.8-.148l1.29-1.29a.356.356 0 1 0-.503-.503l-1.78 1.78q-1.459-.013-2.918.018l1.295-1.295a.356.356 0 1 0-.503-.503L4.912 6.406a.35.35 0 0 0-.029.036l-.001.001c-.828.026-1.654.067-2.478.113zM.711 6.013a.406.406 0 0 1 .406-.405h.933l-.367.812h-.567a.406.406 0 0 1-.406-.406zm2.626 6.997a.358.358 0 0 1-.359.357h-.792a.357.357 0 0 1-.357-.357v-1.15h1.509zm4.68-1.861H1.829V8.507c.002-.441.093-.86.257-1.241l-.008.021a97.592 97.592 0 0 1 12.146.02l-.282-.015c.154.359.244.776.246 1.213v2.643H8.017zm6.17 1.861c0 .197-.16.357-.357.357h-.793a.359.359 0 0 1-.359-.357v-1.15h1.509v1.15zm.987-6.716a.396.396 0 0 1-.281.117h-.564l-.361-.796h.925a.399.399 0 0 1 .281.678z"/></svg>