<svg xmlns="http://www.w3.org/2000/svg" width="16" height="16"><path fill="#8a8b8a" d="M8.059 4.186l-1.92.88c-.2.16-.52.56-.52 1v2.08c0 .56.4 1 .92 1h2.88c.52 0 .92-.44.92-1v-2.08c0-.44-.32-.84-.52-1.04l-1.76-.84zm0-.88l2.24 1.08s.88.72.88 1.72v2.08c0 1-.76 1.8-1.72 1.8h-2.92c-.96 0-1.72-.8-1.72-1.8v-2.12c0-1 .88-1.72.88-1.72l2.36-1.04z"/><path fill="#8a8b8a" d="M7.118 7.807a.44.44 0 1 1-.88 0 .44.44 0 0 1 .88 0zm2.92 0a.44.44 0 1 1-.88 0 .44.44 0 0 1 .88 0zm-2.44-5.64h.8v1.44h-.8v-1.44z"/><path fill="#8a8b8a" d="M8.036 2.633c-.12 0-.32.08-.48.2h-.04l-.04.04s-.4.2-.68.44c-.52.44-.6.64-.6.72l.04-.04 1.44-.56.28-.12.28.12 1.44.56.12.04c0-.12-.16-.36-.52-.68-.36-.28-.72-.48-.72-.48l-.08-.04-.04-.04c-.12-.04-.32-.16-.4-.16zm0-.8c.44 0 .88.32.88.32s1.68.88 1.68 1.92v1.56l-1.16-.88-1.44-.56-1.44.56-1.16.88v-1.56c0-.52.4-.96.88-1.36.36-.32.84-.56.84-.56s.48-.32.92-.32z"/><path fill="#8a8b8a" d="M8.558 5.647a.56.56 0 1 1-1.12 0 .56.56 0 0 1 1.12 0zm-3.16 3.76l-1.16 2.88h.56l1.16-2.88h-.56z"/><path fill="#8a8b8a" d="M4.918 12.447h-.92l1.28-3.2h.92l-1.28 3.2zm-.44-.32h.24l1.04-2.6h-.28l-1 2.6zm6.12-2.72l1.16 2.88h-.56l-1.16-2.88h.56z"/><path fill="#8a8b8a" d="M11.998 12.447h-.92l-1.28-3.2h.92l1.28 3.2zm-.72-.32h.24l-1.04-2.6h-.24l1.04 2.6z"/><path fill="#8a8b8a" d="M5.118 10.567h5.48v.44h-5.48v-.44z"/><path fill="#8a8b8a" d="M10.758 11.127h-5.8v-.72h5.8v.72zm-5.52-.28h5.2v-.12h-5.2v.12zm-.44 1h6.36v.44h-6.36v-.44z"/><path fill="#8a8b8a" d="M11.318 12.447h-6.64v-.72h6.68v.72zm-6.36-.32h6.08v-.12h-6.08v.12z"/><path fill="#8a8b8a" d="M8 16c-4.4 0-8-3.6-8-8s3.6-8 8-8 8 3.6 8 8-3.6 8-8 8zM8 .8C4.04.8.8 4.04.8 8s3.24 7.2 7.2 7.2 7.2-3.24 7.2-7.2S11.96.8 8 .8z"/></svg>