<svg xmlns="http://www.w3.org/2000/svg" width="16" height="16"><path fill="#fff" d="M8 .4c4.2 0 7.6 3.4 7.6 7.6s-3.4 7.6-7.6 7.6S.4 12.2.4 8 3.8.4 8 .4z"/><path fill="#8a8b8a" d="M8 16c-4.4 0-8-3.6-8-8s3.6-8 8-8 8 3.6 8 8-3.6 8-8 8zM8 .8C4.04.8.8 4.04.8 8s3.24 7.2 7.2 7.2 7.2-3.24 7.2-7.2S11.96.8 8 .8z"/><path fill="#8a8b8a" d="M7.822 5.711c.84 0 1.48-.68 1.48-1.48s-.64-1.52-1.48-1.52c-.8 0-1.48.68-1.48 1.48 0 .84.68 1.52 1.48 1.52zm0-2.24c.4 0 .76.32.76.76s-.32.72-.76.72-.72-.32-.72-.76c0-.4.32-.72.72-.72zm-2.6 5.6c0-1.64 1.32-3 3-3h.36c.2 0 .36.16.36.36v.36c0 .84.68 1.48 1.48 1.48.2 0 .36.16.36.36s-.16.36-.36.36c-.56 0-1.08-.2-1.48-.56v.96c0 .2-.16.36-.36.36s-.36-.16-.36-.36v-2.6c-.24 0-.52.04-.76.12v2.12c0 .36.16.68.44.88l1.32 1.04.12.12.76 1.48c.08.2 0 .4-.16.52-.2.08-.4 0-.52-.16l-.72-1.4-.6-.48-.24.72c0 .04-.04.12-.08.16l-1.12 1.12c-.16.16-.4.16-.52 0s-.16-.4 0-.52l1.04-1.04.32-.92h-.04c-.44-.36-.72-.88-.72-1.44v-1.68c-.48.44-.76 1.04-.76 1.68 0 .2-.16.36-.36.36s-.4-.2-.4-.4z"/></svg>