<svg xmlns="http://www.w3.org/2000/svg" width="16" height="16"><path fill="#8a8b8a" d="M16 8A8 8 0 1 1 0 8a8 8 0 0 1 16 0z"/><path fill="#fff" d="M6.362 12.37h3.678l.077.002c.961 0 1.743-.769 1.762-1.726V5.467a1.757 1.757 0 0 0-1.844-1.726h.004-3.678a1.762 1.762 0 0 0-1.839 1.724v5.18a1.766 1.766 0 0 0 1.766 1.727l.077-.002h-.004zm-1.15 1.726h1.039L7.4 12.37H6.361zm4.948 0h1.03l-1.149-1.726h-1.03zm-1.959-3.452a.96.96 0 0 0 .919-.859v-.004a.961.961 0 0 0-.918-.863H8.2a.96.96 0 0 0-.919.859v.004a.962.962 0 0 0 .918.863h.002zm-1.839.863a.825.825 0 0 1-.92-.819l.001-.045v.002-5.178l-.001-.048a.822.822 0 0 1 .925-.814h-.004 3.679a.817.817 0 0 1 .921.81l-.002.055v-.002 5.178l.001.048a.822.822 0 0 1-.925.814h.004zm-.92-3.452h5.517v-.863H5.442zm2.3-4.314h.92v-.863h1.379v-.863H6.362v.863h1.379z"/></svg>