<svg xmlns="http://www.w3.org/2000/svg" width="16" height="16"><path fill="#8a8b8a" d="M8 0a8 8 0 1 1-8 8 8 8 0 0 1 8-8z"/><path fill="#fff" d="M10.553 2.593H5.681a1.494 1.494 0 0 0-1.623 1.63v-.006 8.932h.812v-1.218h6.496v1.218h.812V4.217a1.494 1.494 0 0 0-1.63-1.623h.006zm.812 8.525H4.869v-6.9a.874.874 0 0 1 .809-.812h4.875a.874.874 0 0 1 .812.809v.003zm-4.872-.812v-.812h-.812v.812zm4.06-.812h-.812v.812h.812zm-7.308-.812h9.744V7.87H3.245zm5.278-.203V5.434h-.811v3.045zM4.056 5.84h8.121v-.812h-8.12z"/></svg>