<svg xmlns="http://www.w3.org/2000/svg" width="16" height="16"><path fill="#008244" d="M8 16c-4.4 0-8-3.6-8-8s3.6-8 8-8 8 3.6 8 8-3.6 8-8 8zM8 .8C4.04.8.8 4.04.8 8s3.24 7.2 7.2 7.2 7.2-3.24 7.2-7.2S11.96.8 8 .8z"/><path fill="#008244" d="M6.359 11.182h3.24c.84.04 1.56-.64 1.6-1.48v-4.6c0-.84-.72-1.52-1.56-1.52h-3.28c-.84-.04-1.56.64-1.6 1.48v4.6c0 .84.72 1.52 1.6 1.52zm-1 1.48h.92l1-1.52h-.92l-1 1.52zm4.36 0h.92l-1-1.52h-.92l1 1.52zm-1.72-3c.44 0 .76-.36.8-.76-.04-.4-.4-.76-.8-.76-.44 0-.76.36-.8.76.04.4.36.72.8.76zm-1.64.76c-.4.04-.76-.24-.8-.64v-4.68c0-.4.28-.76.68-.76h3.36c.4-.04.76.24.8.64v4.68c.04.4-.28.72-.68.76h-3.36zm-.8-3.04h4.84v-.76h-4.84v.76zm2.04-3.8h.8v-.76h1.2v-.76h-3.24v.76h1.2l.04.76z"/></svg>