<svg xmlns="http://www.w3.org/2000/svg" width="16" height="16"><path fill="#0097d0" d="M8 .667a7.304 7.304 0 0 0-5.185 2.148A7.304 7.304 0 0 0 .667 8a7.293 7.293 0 0 0 2.148 5.185 7.32 7.32 0 0 0 8.039 1.572 7.293 7.293 0 0 0 2.331-1.572 7.32 7.32 0 0 0 1.572-8.039 7.304 7.304 0 0 0-1.572-2.331A7.304 7.304 0 0 0 8 .667zM8 0a8 8 0 1 1 0 16A8 8 0 0 1 8 0z"/><path fill="#0053a0" d="M8.528 4.035A2.384 2.384 0 0 0 6.173 6.39v.001a.393.393 0 0 0 .786 0 1.57 1.57 0 0 1 3.14 0c.006.681-.362 1.033-.846 1.472a5.542 5.542 0 0 0-.722.732l-.008.01a1.808 1.808 0 0 0-.386 1.103v.216a.393.393 0 0 0 .786 0V9.7c0-.238.086-.457.228-.626l-.001.001c.195-.231.402-.438.626-.627l.008-.006c.5-.454 1.11-1.067 1.104-2.055v-.006a2.385 2.385 0 0 0-2.356-2.348h-.001zm0 6.87a.59.59 0 1 0 .589.589.59.59 0 0 0-.589-.589z"/></svg>