<svg xmlns="http://www.w3.org/2000/svg" width="16" height="16"><path fill="#8a8b8a" d="M8 16c-4.4 0-8-3.6-8-8s3.6-8 8-8 8 3.6 8 8-3.6 8-8 8zM8 .667C3.967.667.667 3.967.667 8s3.3 7.333 7.333 7.333 7.333-3.3 7.333-7.333S12.033.667 8 .667z"/><path fill="#8a8b8a" d="M10.535 2.606H5.668c-.833-.067-1.533.533-1.633 1.367v9.2h.8V11.94h6.5v1.233h.8V4.24c.1-.833-.5-1.567-1.333-1.633h-.267zm.834 8.533h-6.5v-6.9c.033-.433.367-.8.8-.833h4.867a.86.86 0 0 1 .8.8v6.933zm-4.9-.833v-.8h-.8v.8h.8zm4.066-.8h-.8v.8h.8v-.8zm-7.3-.8h9.733v-.8H3.235v.8zm5.267-.2V5.439h-.8v3.033l.8.033zM4.035 5.839h8.133v-.8H4.035v.8z"/></svg>