<svg xmlns="http://www.w3.org/2000/svg" width="16" height="16"><path fill="#a5cf4c" d="M8 16c-4.4 0-8-3.6-8-8s3.6-8 8-8c2.12 0 4.16.84 5.64 2.36A7.864 7.864 0 0 1 16 8c0 4.4-3.6 8-8 8zM8 .8C4.04.8.8 4.04.8 8s3.24 7.2 7.2 7.2 7.2-3.24 7.2-7.2c0-1.92-.76-3.76-2.12-5.08A7.143 7.143 0 0 0 8 .8z"/><path fill="#ed1b2e" d="M8 16c-4.4 0-8-3.6-8-8s3.6-8 8-8c2.12 0 4.16.84 5.64 2.36A7.864 7.864 0 0 1 16 8c0 4.4-3.6 8-8 8zM8 .8C4.04.8.8 4.04.8 8s3.24 7.2 7.2 7.2 7.2-3.24 7.2-7.2c0-1.92-.76-3.76-2.12-5.08A7.143 7.143 0 0 0 8 .8z"/><path fill="#8a8b8a" d="M8.049 4.555a3.21 3.21 0 0 0-3.085 3.309c.014.4.108.796.282 1.19a7.15 7.15 0 0 0 1.141 1.72c.462.624 1.004 1.245 1.423 1.791a.31.31 0 0 0 .402.066c.04-.001.039-.041.079-.043.46-.576 1.077-1.238 1.654-1.898a6.833 6.833 0 0 0 1.217-1.803c.146-.405.252-.809.236-1.249-.102-1.757-1.591-3.145-3.349-3.083zm.021.6a2.593 2.593 0 0 1 2.688 2.506c.013.36-.056.682-.165 1.006l.001.04a6.688 6.688 0 0 1-1.143 1.64l-1.423 1.65c-.378-.507-.796-1.012-1.213-1.518s-.756-1.014-1.056-1.603a3.3 3.3 0 0 1-.196-1.033c-.09-1.437 1.068-2.638 2.506-2.688zm.041 1.158c-.799.028-1.416.69-1.388 1.489s.69 1.416 1.489 1.388S9.628 8.5 9.6 7.701a1.434 1.434 0 0 0-1.489-1.388zm.019.56c.48-.017.893.369.91.848s-.369.893-.848.91c-.48.017-.893-.369-.91-.848s.369-.893.848-.91z"/></svg>