<svg xmlns="http://www.w3.org/2000/svg" width="16" height="16"><path fill="#8a8b8a" d="M8 0c4.433 0 8 3.567 8 8s-3.567 8-8 8-8-3.567-8-8 3.567-8 8-8z"/><path fill="#fff" d="M8.042 4.854l-1.9.833c-.167.167-.5.567-.5 1v2.1c0 .533.4.967.9.967h2.9c.5 0 .9-.433.9-.967V6.72c0-.433-.333-.833-.5-1l-1.8-.867zm.033-.934l2.267 1.067s.867.733.867 1.7v2.1c0 1-.767 1.8-1.733 1.8H6.543c-.967 0-1.733-.8-1.733-1.8V6.72c0-1 .867-1.7.867-1.7l2.4-1.1z"/><path fill="#fff" d="M7.125 8.421a.433.433 0 1 1-.866 0 .433.433 0 0 1 .866 0zm2.9 0a.433.433 0 1 1-.866 0 .433.433 0 0 1 .866 0zM7.492 2.754h1v1.467h-1V2.754z"/><path fill="#fff" d="M8.02 3.276c-.1 0-.3.1-.433.2h-.033l-.067.033s-.4.2-.667.433c-.433.333-.533.567-.6.667l1.467-.567.3-.133.3.133 1.467.567c-.033-.133-.167-.333-.5-.6-.333-.3-.7-.467-.733-.467l-.033-.067-.067-.033a.854.854 0 0 0-.4-.167zm0-.833c.433 0 .867.3.867.3s1.7.867 1.7 1.9V6.21L9.42 5.343 7.987 4.81l-1.433.567-1.167.867V4.677c0-.5.4-.967.9-1.367.367-.3.833-.533.833-.533s.467-.333.9-.333z"/><path fill="#fff" d="M8.559 6.254a.567.567 0 1 1-1.134 0 .567.567 0 0 1 1.134 0zm-3.167 3.767l-1.167 2.9h.567l1.167-2.9h-.567z"/><path fill="#fff" d="M4.925 13.088h-.933l1.3-3.233h.933l-1.3 3.233zm-.466-.334h.233l1.033-2.567h-.233l-1.033 2.567zm6.166-2.733l1.167 2.9h-.567l-1.167-2.9h.567z"/><path fill="#fff" d="M12.025 13.088h-.933l-1.3-3.233h.933l1.3 3.233zm-.733-.334h.233l-1.033-2.567h-.233l1.033 2.567z"/><path fill="#fff" d="M5.092 11.188h5.533v.433H5.092v-.433z"/><path fill="#fff" d="M10.792 11.788H4.925v-.767h5.867v.767zm-5.533-.334h5.2v-.1h-5.2v.1zm-.467 1.034h6.4v.433h-6.4v-.433z"/><path fill="#fff" d="M11.359 13.088H4.626v-.767h6.733v.767zm-6.4-.334h6.067v-.1H4.959v.1z"/></svg>