<svg xmlns="http://www.w3.org/2000/svg" width="16" height="16"><path fill="#008244" d="M16 8A8 8 0 1 1 0 8a8 8 0 0 1 16 0z"/><path fill="#fff" d="M6.197 12.403H9.79l.077.002a1.72 1.72 0 0 0 1.72-1.685V5.662a1.716 1.716 0 0 0-1.801-1.685h.004-3.593A1.72 1.72 0 0 0 4.4 5.66v5.058a1.728 1.728 0 0 0 1.726 1.687l.074-.002h-.003zm-1.123 1.685h1.015l1.123-1.685H6.197zm4.833 0h1.006L9.79 12.403H8.784zm-1.914-3.37a.938.938 0 0 0 .898-.839v-.004a.939.939 0 0 0-.897-.843h-.002a.938.938 0 0 0-.898.839v.004a.939.939 0 0 0 .897.843h.002zm-1.797.842a.806.806 0 0 1-.899-.801l.001-.044v.002-5.056l-.001-.047a.802.802 0 0 1 .904-.796h-.004H9.79a.8.8 0 0 1 .898.845v-.002 5.056a.8.8 0 0 1-.902.842h.004zm-.898-3.37h5.39v-.843h-5.39zm2.246-4.214h.898v-.843H9.79v-.842H6.197v.843h1.347z"/></svg>