<svg xmlns="http://www.w3.org/2000/svg" width="16" height="16"><path fill="#ed1b2e" d="M16 8A8 8 0 1 1 0 8a8 8 0 0 1 16 0z"/><path fill="#fff" d="M10.19 3.009H5.526a1.43 1.43 0 0 0-1.554 1.56v-.006 8.552h.777v-1.166h6.219v1.166h.778V4.564a1.43 1.43 0 0 0-1.56-1.554h.006zm.777 8.163h-6.22V4.564a.836.836 0 0 1 .775-.777h4.667c.417.029.748.36.777.775v.003zm-4.665-.777v-.778h-.777v.778zm3.888-.778h-.778v.778h.778zM3.193 8.84h9.329v-.778H3.193zm5.053-.194V5.731h-.778v2.915zM3.97 6.119h7.774v-.778H3.97z"/></svg>