<svg xmlns="http://www.w3.org/2000/svg" width="16" height="16"><path fill="#a5cf4c" d="M7.998.853H8A7.147 7.147 0 1 1 .853 8 7.155 7.155 0 0 1 7.998.853h.001zm0-.853a8 8 0 1 0 8 8 8 8 0 0 0-8-8z"/><path fill="#a5cf4c" d="M8.448 7.56c-1.25-.421-1.6-1.164-1.52-1.673.072-.461.52-.926 1.358-.926a1.382 1.382 0 0 1 1.329 1.167l.001.008a.536.536 0 0 0 .609.434h-.003a.522.522 0 0 0 .4-.627l.001.003A2.43 2.43 0 0 0 8.75 3.935l-.016-.003V3a.488.488 0 1 0-.97.002V3v.935a2.218 2.218 0 0 0-1.853 1.767l-.002.014c-.144.926.347 2.232 2.223 2.865.986.333 1.52.866 1.434 1.426a1.4 1.4 0 0 1-1.465.982h.005c-1.4 0-1.501-.783-1.506-.93v-.007a.531.531 0 0 0-.524-.531.52.52 0 0 0-.512.52v.019-.001c0 .65.423 1.843 2.2 1.991v.756a.488.488 0 1 0 .97-.002v.002-.822a2.32 2.32 0 0 0 1.833-1.792l.003-.015c.065-.424.131-1.862-2.118-2.619z"/></svg>