<svg xmlns="http://www.w3.org/2000/svg" width="16" height="16"><path fill="#fff" d="M7.999.853H8A7.147 7.147 0 1 1 .853 8 7.156 7.156 0 0 1 7.998.853h.001zm0-.853a8 8 0 1 0 8 8 8 8 0 0 0-8-8z"/><path fill="#fff" d="M8.481 7.567c-1.382-.4-1.77-1.106-1.683-1.589.079-.438.575-.88 1.502-.88a1.433 1.433 0 0 1 1.469 1.106l.002.01a.59.59 0 0 0 .674.412l-.004.001a.5.5 0 0 0 .439-.595l.001.003a2.469 2.469 0 0 0-2.077-1.912l-.013-.001v-.885a.537.537 0 0 0-1.072-.001v.889c-1.073.177-1.896.824-2.053 1.692-.159.88.384 2.121 2.459 2.722 1.091.316 1.682.822 1.586 1.355-.083.458-.71.933-1.614.933-1.549 0-1.66-.744-1.667-.884a.549.549 0 0 0-.547-.512l-.034.001h.002l-.031-.001a.537.537 0 0 0-.536.511v.001c0 .617.467 1.751 2.433 1.891v.718a.537.537 0 0 0 1.072.001v-.783c1.073-.221 1.881-.886 2.031-1.716.077-.401.15-1.767-2.339-2.487z"/></svg>