<svg xmlns="http://www.w3.org/2000/svg" width="16" height="16"><path fill="#8a8b8a" d="M.5 15.27v-.003c0-.197.076-.377.2-.51L6.861 8 .7 1.24A.748.748 0 0 1 .5.73V.714v.001A.727.727 0 0 1 .934.052L.939.05a.655.655 0 0 1 .745.179l.001.001 6.622 7.264a.753.753 0 0 1-.001 1.007l.001-.001-6.619 7.264a.656.656 0 0 1-.759.18l.004.002A.73.73 0 0 1 .5 15.28v-.011.001z"/><path fill="#8a8b8a" d="M15.5 15.269v-.003a.746.746 0 0 0-.2-.51L9.139 8 15.3 1.24a.748.748 0 0 0 .2-.51V.714v.001a.727.727 0 0 0-.437-.663L15.058.05a.655.655 0 0 0-.745.179l-.001.001-6.619 7.264a.755.755 0 0 0 0 1.011l-.001-.001 6.619 7.264a.656.656 0 0 0 .759.18l-.004.002a.73.73 0 0 0 .433-.666v-.016.001z"/></svg>