<svg xmlns="http://www.w3.org/2000/svg" width="16" height="16"><path fill="#0097d0" d="M14.22 7.454V3.459a1.852 1.852 0 0 0-1.852-1.85h-.132v-.74a.37.37 0 1 0-.742 0v.721H9.862V.869a.37.37 0 1 0-.742 0v.721H7.489V.869a.37.37 0 1 0-.742 0v.721H5.099V.869a.37.37 0 1 0-.742 0v.721H2.724V.869a.37.37 0 1 0-.742 0v.721H1.85C.828 1.59 0 2.418-.002 3.439v7.472a1.852 1.852 0 0 0 1.852 1.85h5.527c.696 1.629 2.285 2.75 4.135 2.75A4.484 4.484 0 0 0 14.23 7.46l-.011-.008zM1.853 12.023h-.001c-.613 0-1.11-.497-1.111-1.11V3.459a1.112 1.112 0 0 1 1.111-1.11h.131v.536a.37.37 0 1 0 .742 0v-.536h1.632v.536a.37.37 0 1 0 .742 0v-.536h1.632v.536a.37.37 0 1 0 .742 0v-.536h1.65v.536a.37.37 0 1 0 .742 0v-.536h1.632v.536a.37.37 0 1 0 .742 0v-.536h.131c.613 0 1.11.497 1.111 1.11v3.533a4.504 4.504 0 0 0-2.01-.467c-.953 0-1.837.292-2.569.791l.016-.01c-.064-.048-1.037.703-.833.703a4.395 4.395 0 0 0-1.102 2.918c0 .389.05.767.145 1.126l-.007-.031zm9.66 2.756a3.736 3.736 0 1 1 3.763-3.755v.015a3.741 3.741 0 0 1-3.741 3.741h-.024.001z"/><path fill="#f68b1f" d="M5.763 4.378h-.672a.383.383 0 0 0 0 .766h.672a.383.383 0 0 0 0-.766zm-2.688 0h-.672a.383.383 0 0 0 0 .766h.672a.383.383 0 0 0 0-.766zm4.703.766h.672a.383.383 0 0 0 0-.766h-.672a.383.383 0 0 0 0 .766zm2.688 0h.672a.383.383 0 0 0 0-.766h-.672a.383.383 0 0 0 0 .766zM5.763 6.618h-.672a.383.383 0 0 0 0 .766h.672a.383.383 0 0 0 0-.766zm-2.688 0h-.672a.383.383 0 0 0 0 .766h.672a.383.383 0 0 0 0-.766zM5.763 8.84h-.672a.383.383 0 0 0 0 .766h.672a.383.383 0 0 0 0-.766zm-2.688 0h-.672a.383.383 0 0 0 0 .766h.672a.383.383 0 0 0 0-.766zm9.829 2.266h-1.403V9.133a.384.384 0 0 0-.766-.001v2.357c0 .212.172.383.383.383h1.806a.383.383 0 0 0 0-.766zm-5.03-4.488h-.672a.383.383 0 0 0 0 .766h.672a.383.383 0 0 0 0-.766z"/></svg>