<svg xmlns="http://www.w3.org/2000/svg" width="16" height="16"><path fill="#0097d0" d="M15.751 3.297L12.724.286a.977.977 0 0 0-1.285-.087l.002-.002a1.149 1.149 0 0 0-.159.142l-.001.001-9.836 9.816a1.046 1.046 0 0 0-.301.736v.013-.001c-.018.053-.053.107-.071.16L.02 15.09a.964.964 0 0 0-.017.233v-.002a.604.604 0 0 0 .178.481c.113.117.27.192.444.196h.13a.7.7 0 0 0 .16-.019l-.005.001 4.044-.962a.55.55 0 0 0 .233-.108l-.001.001c.284-.004.541-.118.731-.301l9.835-9.834a1.034 1.034 0 0 0 .283-.969l.001.007a1.37 1.37 0 0 0-.286-.518l.001.001zM11.832.767a.27.27 0 0 1 .182-.072h.014-.001a.287.287 0 0 1 .196.089l3.031 3.029a.3.3 0 0 1-.001.41L13.88 5.595a.3.3 0 0 1-.41 0l-3.03-3.029a.259.259 0 0 1 0-.392zm.946 5.951a.3.3 0 0 1-.41 0L9.339 3.689a.3.3 0 0 1 .001-.41l.463-.463a.861.861 0 0 0 .16.214l3.029 3.029c.07.073.153.133.246.176l.005.002zM1.962 15.019l-.945-.962.588-2.262 2.672 2.672zm3.456-.908a.363.363 0 0 1-.516 0l-2.958-2.957a.351.351 0 0 1-.107-.251v-.01c0-.095.041-.181.107-.24l6.734-6.731c.059.102.118.189.182.272l-.004-.005 3.029 3.029a.724.724 0 0 0 .262.177l.005.002z"/></svg>