<svg xmlns="http://www.w3.org/2000/svg" width="16" height="16"><path fill="#fff" d="M16.382 3.693a2.122 2.122 0 0 0-2.121-2.122H13.18V.424a.426.426 0 0 0-.848-.001v1.149H4.054V.425a.426.426 0 0 0-.848-.001v1.149H2.125c-1.172 0-2.122.95-2.122 2.122V13.88c0 1.172.95 2.122 2.122 2.122h12.138c1.172 0 2.122-.95 2.122-2.122zM2.122 2.419h1.081v.807a.426.426 0 0 0 .848.001v-.808h8.276v.807a.426.426 0 0 0 .848.001v-.809h1.081c.703 0 1.273.57 1.273 1.273v1.57H.846V3.69c0-.703.57-1.273 1.273-1.273zm12.139 12.733H2.122c-.703 0-1.273-.57-1.273-1.273V6.113h14.684v7.766c0 .703-.569 1.273-1.272 1.273z"/><path fill="#fff" d="M11.056 8.469l-3.777 3.33-1.698-1.719a.426.426 0 0 0-.593.595l-.001-.001 1.952 2.016a.424.424 0 0 0 .304.128h.015-.001a.512.512 0 0 0 .277-.107l-.001.001 4.095-3.607a.465.465 0 0 0 .042-.617l.001.001a.447.447 0 0 0-.616-.02z"/></svg>