<!-- Generated by IcoMoon.io -->
<svg version="1.1" xmlns="http://www.w3.org/2000/svg" width="16" height="16" viewBox="0 0 16 16">
<title>event-white</title>
<path fill="#fff" d="M16.382 3.693c-0-1.171-0.949-2.121-2.121-2.122h-1.081v-1.147c-0.019-0.219-0.202-0.39-0.424-0.39s-0.406 0.171-0.424 0.389l-0 0.002v1.147h-8.278v-1.147c-0.019-0.219-0.202-0.39-0.424-0.39s-0.406 0.171-0.424 0.389l-0 0.002v1.147h-1.081c-1.172 0-2.122 0.95-2.122 2.122v0 10.185c0 1.172 0.95 2.122 2.122 2.122v0h12.138c1.172 0 2.122-0.95 2.122-2.122v0zM2.122 2.419h1.081v0.807c0.019 0.219 0.202 0.39 0.424 0.39s0.406-0.171 0.424-0.389l0-0.002v-0.806h8.276v0.807c0.019 0.219 0.202 0.39 0.424 0.39s0.406-0.171 0.424-0.389l0-0.002v-0.807h1.081c0.703 0 1.273 0.57 1.273 1.273v0 1.57h-14.683v-1.571c0-0.703 0.57-1.273 1.273-1.273v0zM14.261 15.152h-12.139c-0.703 0-1.273-0.57-1.273-1.273v0-7.766h14.684v7.766c0 0.703-0.569 1.273-1.272 1.273h-0z"></path>
<path fill="#fff" d="M11.056 8.469l-3.777 3.33-1.698-1.719c-0.069-0.050-0.155-0.080-0.248-0.080-0.235 0-0.426 0.191-0.426 0.426 0 0.093 0.030 0.179 0.081 0.249l-0.001-0.001 1.952 2.016c0.077 0.079 0.185 0.128 0.304 0.128 0.005 0 0.010-0 0.015-0l-0.001 0c0.105-0.008 0.2-0.047 0.277-0.107l-0.001 0.001 4.095-3.607c0.086-0.085 0.139-0.202 0.139-0.332 0-0.107-0.036-0.206-0.097-0.285l0.001 0.001c-0.081-0.082-0.194-0.134-0.318-0.134-0.114 0-0.219 0.043-0.298 0.114l0-0z"></path>
</svg>
