<svg xmlns="http://www.w3.org/2000/svg" width="16" height="16"><path fill="#8a8b8a" d="M8.533 11.867h-1.2a.37.37 0 0 1-.367-.367V8.733h-.7a.37.37 0 0 1-.367-.367v-1.2c0-.2.167-.367.367-.367h.7v-.6c-.033-.533.167-1.067.533-1.433s.9-.567 1.433-.533h.933c.2 0 .367.167.367.367v1.067a.37.37 0 0 1-.367.367h-.633c-.2 0-.233.033-.267.067s-.033.067-.033.233v.467h.867c.067 0 .133 0 .2.033.133.067.2.2.2.333v1.2a.37.37 0 0 1-.367.367h-.867v2.767c-.067.2-.233.367-.433.367zM7.4 11.4h1.067V8.5c0-.133.1-.233.233-.233h1V7.234h-1a.228.228 0 0 1-.233-.233v-.667c0-.2.033-.367.133-.533.167-.133.367-.233.6-.2h.567v-.933H8.9c-.933 0-1.5.6-1.5 1.533v.8c0 .133-.1.233-.233.233h-.833v1.033h.833c.133 0 .233.1.233.233v2.9zm2.433-6.733z"/><path fill="#8a8b8a" d="M8 16c-4.4 0-8-3.6-8-8s3.6-8 8-8 8 3.6 8 8-3.6 8-8 8zM8 .667C3.967.667.667 3.967.667 8s3.3 7.333 7.333 7.333 7.333-3.3 7.333-7.333S12.033.667 8 .667z"/></svg>