<svg xmlns="http://www.w3.org/2000/svg" width="16" height="16"><path fill="#8a8b8a" d="M6.004 6.389c-.933 0-1.7.767-1.7 1.7s.767 1.7 1.7 1.7 1.7-.767 1.7-1.7-.767-1.7-1.7-1.7zm0 2.8c-.6 0-1.1-.5-1.1-1.1s.5-1.1 1.1-1.1 1.1.5 1.1 1.1c0 .6-.5 1.1-1.1 1.1zm4.1-2.8c-.933 0-1.7.767-1.7 1.7s.767 1.7 1.7 1.7 1.7-.767 1.7-1.7-.767-1.7-1.7-1.7zm0 2.8c-.6 0-1.1-.5-1.1-1.1s.5-1.1 1.1-1.1c.6 0 1.1.5 1.1 1.1.033.6-.467 1.1-1.1 1.1z"/><path fill="#8a8b8a" d="M8 16c-4.4 0-8-3.6-8-8s3.6-8 8-8 8 3.6 8 8-3.6 8-8 8zM8 .667C3.967.667.667 3.967.667 8s3.3 7.333 7.333 7.333 7.333-3.3 7.333-7.333S12.033.667 8 .667z"/></svg>