<svg xmlns="http://www.w3.org/2000/svg" width="16" height="16"><path fill="#8a8b8a" d="M7.8 9.219h-.006a1.87 1.87 0 0 1-.249-.016l.01.001a2.124 2.124 0 0 1-1.202-.677l-.002-.002c-.285-.267-.449-.381-.637-.375-.16.012-.309.043-.45.09l.013-.004a1.938 1.938 0 0 1-1.08.074l.013.002c-1.142-.295-1.26-1.478-1.338-2.261a8.818 8.818 0 0 0-.037-.339c-.011-.074-.021-.159-.593-.121a1.013 1.013 0 0 0-.123.021l.006-.001a1.027 1.027 0 0 1-.849-.108l.004.003a1.27 1.27 0 0 1-.35-1.178l-.002.008a.5.5 0 1 1 .994.112v-.002a1.162 1.162 0 0 0-.007.189v-.002l.017-.003a1.82 1.82 0 0 1 .237-.037l.008-.001c.371-.024 1.501-.097 1.648.985.016.116.029.243.041.375.074.744.16 1.28.593 1.392a1.167 1.167 0 0 0 .553-.075l-.008.003a2.54 2.54 0 0 1 .693-.123h.014c.517.028.974.263 1.293.623l.002.002c.164.198.379.348.625.43l.01.003a.826.826 0 0 1-.055-.19l-.001-.005a.855.855 0 0 1 .302-.784l.001-.001c-.031-.01-.067-.021-.096-.035a.992.992 0 0 1-.655-.907v-.001c.033-.529.363-.974.825-1.171l.009-.003c.979-.441 1.505.205 1.853.633l.103.125c.116.137.244.258.385.363l.006.004-.011-.048a1.4 1.4 0 0 1-.028-.657l-.001.009c.119-.396.36-.725.679-.952l.005-.004c.13-.107.267-.209.4-.31.341-.221.627-.495.854-.815l.006-.01a1.09 1.09 0 0 0 .167-.566v-.001a.809.809 0 0 0-.075-.26l.002.005a2.04 2.04 0 0 1-.115-.361l-.003-.014a.5.5 0 0 1 .98-.197v.003c.018.079.041.148.07.213l-.003-.008c.08.176.131.381.141.596v.004a2.1 2.1 0 0 1-.311 1.102l.005-.009a3.973 3.973 0 0 1-1.109 1.11l-.015.009c-.123.092-.246.183-.364.281a.984.984 0 0 0-.342.399l-.002.006a.858.858 0 0 0 .033.223l-.001-.006a1.33 1.33 0 0 1-.002.743l.002-.009a.845.845 0 0 1-.643.606l-.005.001c-.649.119-1.297-.592-1.479-.813l-.111-.133c-.376-.461-.416-.467-.667-.352a.487.487 0 0 0-.238.227l-.001.003.047.021a.665.665 0 0 0 .12.026h.004a.977.977 0 0 1 .819.566l.002.006a.768.768 0 0 1-.431 1.006l-.005.002-.04.023a.988.988 0 0 0 .17.093l.007.003a.715.715 0 0 1 .635.709.5.5 0 0 1-.199.391l-.001.001a.49.49 0 0 1-.436.079l.004.001a1.492 1.492 0 0 0-.571.006l.01-.002a4.057 4.057 0 0 1-.469.039h-.005z"/><path fill="#8a8b8a" d="M8.838 15.848h-.001a.5.5 0 0 1-.485-.616l-.001.003.115-.483c.129-.533.267-1.09.339-1.631.099-.706.087-.921-.245-1.251a1.545 1.545 0 0 1-.573-1.184v-.001c.033-.352.221-.653.495-.839l.004-.003a1.81 1.81 0 0 1 .174-.115l.01-.005a4.49 4.49 0 0 0 .078-.049 2.185 2.185 0 0 0-.183-.348l.005.009c-.041-.067-.079-.133-.109-.189s-.051-.123-.057-.194V8.95a.611.611 0 0 1 .082-.452l-.001.003a1.13 1.13 0 0 1 1.006-.385l-.006-.001c.384.01.74.117 1.049.297l-.011-.006a4.3 4.3 0 0 1 .345.223c.281.195.363.243.569.189.161-.053.292-.106.419-.166l-.023.01a2.106 2.106 0 0 1 1.584-.249l-.014-.003c.884.366.79 1.667.611 2.209a3.252 3.252 0 0 1-1.118 1.689l-.007.005c-.139.099-.273.183-.4.267a1.56 1.56 0 0 0-.683.634l-.004.008c-.578 1.165-1.373 2.389-2.887 2.625a.405.405 0 0 1-.052.003l-.026-.001h.001zm.757-6.727a1.142 1.142 0 0 1 .128.836l.001-.008c-.09.276-.283.496-.532.622l-.006.003c-.034.021-.067.041-.1.067-.083.063-.103.105-.103.111s-.005.125.28.407a2.12 2.12 0 0 1 .53 2.115l.004-.015c-.062.442-.156.877-.256 1.303a4.286 4.286 0 0 0 1.356-1.762l.01-.028c.24-.451.601-.81 1.041-1.041l.014-.006c.111-.067.227-.141.346-.227.365-.305.633-.715.756-1.184l.004-.016c.127-.385.067-.925-.045-.97-.293.033-.559.12-.799.25l.012-.006a3.707 3.707 0 0 1-.511.199l-.028.008a1.525 1.525 0 0 1-1.394-.334l.002.001c-.084-.057-.172-.119-.271-.176a1.21 1.21 0 0 0-.43-.146l-.007-.001z"/><path fill="#8a8b8a" d="M8 16a8 8 0 1 1 8-8 8.01 8.01 0 0 1-7.999 8H8zM8 1a7 7 0 1 0 7 7 7.008 7.008 0 0 0-7-7z"/><path fill="#8a8b8a" d="M8.643 3.005c-.059 0-.119 0-.179-.006a2.9 2.9 0 0 1-.975-.294l.017.008a2.726 2.726 0 0 0-.514-.189l-.019-.004a.782.782 0 0 1-.591-.396L6.38 2.12a.764.764 0 0 1-.05-.487l-.001.005.025-.133c.021-.082.035-.178.041-.276v-.023a.5.5 0 0 1-.41-.888l.001-.001a.848.848 0 0 1 1.107.106c.188.2.303.47.303.766l-.001.054V1.24a1.981 1.981 0 0 1-.041.358l.002-.013c.219.068.401.139.576.22l-.028-.012c.182.095.394.167.618.204l.012.002h.023c.327 0 .645-.042.948-.121l-.026.006.147-.03a.994.994 0 0 1-.108-.581v.005a.95.95 0 0 1 .655-.77l.007-.002a1.157 1.157 0 0 1 .873.089l-.006-.003a.5.5 0 0 1-.456.89l.003.001a.23.23 0 0 0-.035-.015l-.002-.001.029.039.055.067c.13.145.234.316.304.504l.004.011a.5.5 0 0 1-.466.653 4.588 4.588 0 0 0-.834.124l.031-.006a4.83 4.83 0 0 1-1.027.142h-.009z"/></svg>