<svg xmlns="http://www.w3.org/2000/svg" width="16" height="16"><path fill="#8a8b8a" d="M9.829 4.216H6.362a2.02 2.02 0 0 0-2.033 2.033v3.467c0 1.133.9 2.033 2.033 2.033h3.467a2.02 2.02 0 0 0 2.033-2.033V6.249a2.02 2.02 0 0 0-2.033-2.033zm1.6 5.5c0 .9-.7 1.6-1.6 1.6H6.362c-.9 0-1.6-.7-1.6-1.6V6.249c0-.9.7-1.6 1.6-1.6h3.467c.9 0 1.6.7 1.6 1.6v3.467z"/><path fill="#8a8b8a" d="M8.096 5.916c-1.133 0-2.067.933-2.067 2.067s.933 2.067 2.067 2.067c1.133 0 2.067-.933 2.067-2.067S9.23 5.916 8.096 5.916zm0 3.7c-.9 0-1.633-.733-1.633-1.633S7.196 6.35 8.096 6.35s1.633.733 1.633 1.633-.733 1.633-1.633 1.633zm2.1-4.433c-.333 0-.6.267-.6.6s.267.6.6.6.6-.267.6-.6c.033-.333-.233-.6-.6-.6zm0 .8c-.1 0-.167-.067-.167-.167s.067-.167.167-.167.167.067.167.167c0 .067-.067.167-.167.167z"/><path fill="#8a8b8a" d="M8 16c-4.4 0-8-3.6-8-8s3.6-8 8-8 8 3.6 8 8-3.6 8-8 8zM8 .667C3.967.667.667 3.967.667 8s3.3 7.333 7.333 7.333 7.333-3.3 7.333-7.333S12.033.667 8 .667z"/></svg>