<svg xmlns="http://www.w3.org/2000/svg" width="16" height="16"><path fill="#8a8b8a" d="M6.894 5.832H5.627c-.133 0-.267.1-.267.267v4.767c0 .133.1.267.267.267h1.267c.133 0 .267-.1.267-.267V6.099a.263.263 0 0 0-.267-.267zm-.2 4.833h-.9v-4.4h.9v4.4zm-.433-7.066c-.5 0-.9.4-.9.9s.4.9.9.9.9-.4.9-.9-.4-.9-.9-.9zm0 1.366c-.267 0-.467-.2-.467-.467s.2-.467.467-.467.467.2.467.467-.2.467-.467.467zm5 1.434c-.3-.267-.7-.4-1.1-.367-.233 0-.5.067-.7.167v-.133c0-.133-.1-.233-.233-.233h-1.3c-.133 0-.233.1-.233.233v4.8c0 .133.1.233.233.233h1.3c.133 0 .233-.1.233-.233V7.999c0-.233.2-.433.433-.467.233 0 .467.2.467.433v2.867c0 .133.1.2.2.2h1.267c.133 0 .2-.1.2-.2v-2.8c.033-.6-.267-1.233-.767-1.633zm.367 4.266h-.8V8.032c0-.5-.4-.9-.9-.9s-.9.4-.9.9v2.633h-.9v-4.4h.9v.333c0 .133.1.233.233.233.067 0 .1-.033.133-.067.233-.2.5-.3.8-.3s.567.1.8.267c.4.333.667.867.633 1.4v2.533z"/><path fill="#8a8b8a" d="M8 16c-4.4 0-8-3.6-8-8s3.6-8 8-8 8 3.6 8 8-3.6 8-8 8zM8 .667C3.967.667.667 3.967.667 8s3.3 7.333 7.333 7.333 7.333-3.3 7.333-7.333S12.033.667 8 .667z"/></svg>