<svg xmlns="http://www.w3.org/2000/svg" width="16" height="16"><path fill="#8a8b8a" d="M1.093 9.616a3.741 3.741 0 1 0 5.29 5.29l2.939-2.939c.676-.678 1.093-1.612 1.093-2.645s-.418-1.967-1.093-2.645a.622.622 0 0 0-1.065.441c0 .172.07.328.183.441.456.449.738 1.073.738 1.763s-.282 1.314-.738 1.763l-2.939 2.939a2.495 2.495 0 1 1-3.527-3.526l.001-.001 2.792-2.792a.622.622 0 0 0-.441-1.065.622.622 0 0 0-.441.183L1.093 9.615zm5.584-5.584c-.675.678-1.093 1.613-1.093 2.645s.418 1.967 1.093 2.645a.622.622 0 0 0 1.065-.441.622.622 0 0 0-.183-.441c-.456-.449-.738-1.073-.738-1.763s.282-1.314.738-1.763l2.939-2.939a2.495 2.495 0 1 1 3.527 3.526l-.001.001-2.792 2.792a.622.622 0 0 0 .441 1.065c.172 0 .328-.07.441-.183l2.792-2.792a3.741 3.741 0 1 0-5.29-5.29z"/></svg>