<svg xmlns="http://www.w3.org/2000/svg" width="16" height="16"><path fill="#0097d0" d="M10.96 0a.741.741 0 0 0-.549.255l-.001.001-2.884 2.536a.72.72 0 0 0-.059 1.027v-.001a.747.747 0 0 0 1.044.057l-.001.001 1.722-1.515v8.279a.74.74 0 0 0 1.477.002V2.363l1.722 1.514a.743.743 0 0 0 1.043-.058l.001-.001a.719.719 0 0 0-.058-1.027l-.001-.001L11.533.254a.744.744 0 0 0-.562-.256h-.012.001zM4.68 4.619a.733.733 0 0 0-.728.733v8.283l-1.721-1.516a.746.746 0 0 0-1.043.057v.001a.719.719 0 0 0 .058 1.027l.001.001 2.876 2.529a.745.745 0 0 0 1.127.01l.001-.001 2.885-2.538a.72.72 0 0 0 .209-.8l.002.005a.74.74 0 0 0-.675-.482h-.023a.743.743 0 0 0-.499.192l.001-.001-1.721 1.519V5.35a.72.72 0 0 0-.216-.515.743.743 0 0 0-.524-.215h-.011.001z"/></svg>