<svg xmlns="http://www.w3.org/2000/svg" width="9" height="16"><path fill="#fff" d="M2.286 13.714h4.6a2.257 2.257 0 0 0 2.257-2.257v-.031.002-6.893a2.25 2.25 0 0 0-2.249-2.249h-.038.002-4.6A2.257 2.257 0 0 0 .001 4.543v.031-.002 6.88a2.263 2.263 0 0 0 2.263 2.263h.024-.001zM.857 16h1.292l1.429-2.286H2.286zm6.148 0h1.28l-1.429-2.286h-1.28zm-2.434-4.571a1.23 1.23 0 0 0 1.145-1.141v-.004a1.23 1.23 0 0 0-1.141-1.145h-.004a1.23 1.23 0 0 0-1.145 1.141v.004a1.23 1.23 0 0 0 1.142 1.145h.004zm-2.286 1.145a1.057 1.057 0 0 1-1.146-1.15v.004-6.857a1.05 1.05 0 0 1 1.149-1.145h-.004 4.571A1.046 1.046 0 0 1 8 4.576v-.005 6.857a1.05 1.05 0 0 1-1.149 1.145h.004zM1.145 8H8V6.855H1.145zm2.857-5.714h1.145V1.141h1.714V-.004H2.285v1.145h1.714z"/></svg>