<svg xmlns="http://www.w3.org/2000/svg" width="16" height="16"><path fill="#fff" d="M15.832 6.44l-2.257-1.364V1.371a.375.375 0 0 0-.37-.371H2.797a.375.375 0 0 0-.371.371v3.705L.186 6.44a.362.362 0 0 0-.185.315v7.988a.375.375 0 0 0 .371.371h15.276a.36.36 0 0 0 .354-.36v-.012.001-7.986a.385.385 0 0 0-.167-.317l-.001-.001zm-10.14 4.379L.741 14.07V7.45zm2.307-.623l6.4 4.177H1.6zm2.307.623l4.969-3.368v6.62zm4.65-4.042l-1.381.943V5.935zm-2.122-5.036v6.484l-3.2 2.173-1.432-.943a.355.355 0 0 0-.405.001l.001-.001-1.432.943-3.2-2.173V1.741zM2.442 7.72l-1.381-.943 1.381-.842z"/><path fill="#fff" d="M5.491 3.873h2.533a.346.346 0 0 0 0-.692H5.491a.346.346 0 0 0 0 .692zm.104 1.893h4.828a.346.346 0 0 0 0-.692H5.595a.346.346 0 0 0 0 .692zm0 1.893h4.828a.346.346 0 0 0 0-.692H5.595a.346.346 0 0 0 0 .692z"/></svg>