<svg xmlns="http://www.w3.org/2000/svg" width="16" height="16"><path fill="#fff" d="M8 .667c-1 0-1.967.2-2.867.567-.867.367-1.667.9-2.333 1.567S1.6 4.268 1.233 5.134c-.367.9-.567 1.867-.567 2.867s.2 1.967.567 2.867c.367.867.9 1.667 1.567 2.333s1.467 1.2 2.333 1.567c.9.367 1.867.567 2.867.567s1.967-.2 2.867-.567c.867-.367 1.667-.9 2.333-1.567s1.2-1.467 1.567-2.333c.367-.9.567-1.867.567-2.867s-.2-1.967-.567-2.867c-.367-.867-.9-1.667-1.567-2.333s-1.467-1.2-2.333-1.567A7.574 7.574 0 0 0 8 .667zM8 0c4.433 0 8 3.567 8 8s-3.567 8-8 8-8-3.567-8-8 3.567-8 8-8zm-.18 4.169v4.3z"/><path fill="#fff" d="M7.82 8.869c-.2 0-.4-.167-.4-.4v-4.3c0-.2.167-.4.4-.4s.4.2.4.4v4.3c0 .2-.2.4-.4.4zm.567.766l3.133 2.2zm3.133 2.567a.6.6 0 0 1-.233-.067l-3.133-2.2c-.167-.133-.233-.367-.1-.533s.367-.233.533-.1l3.133 2.2c.167.133.233.367.1.533-.067.133-.167.167-.3.167z"/></svg>