<svg xmlns="http://www.w3.org/2000/svg" width="16" height="16"><path fill="#8a8b8a" d="M7.983 4.325a2.162 2.162 0 1 0-2.162-2.164 2.165 2.165 0 0 0 2.163 2.163zm0-3.244A1.081 1.081 0 1 1 6.9 2.161 1.082 1.082 0 0 1 7.981 1.08zM4 9.554c0-2.585 1.914-4.688 4.267-4.688h.534c.298.015.534.26.534.561l-.001.026v-.001.586a2.25 2.25 0 0 0 2.128 2.344h.006a.589.589 0 0 1 .002 1.172h-.002a3.018 3.018 0 0 1-2.133-.9v1.487a.536.536 0 1 1-1.068-.002v.002-4.1a2.902 2.902 0 0 0-1.086.212l.02-.007v3.38c0 .535.231 1.016.599 1.348l.002.001 1.866 1.64c.06.053.109.119.143.192l.001.004 1.066 2.344a.614.614 0 0 1-.236.784l-.003.002a.513.513 0 0 1-.714-.258l-.001-.003-1.014-2.229-.855-.75-.35 1.146a.618.618 0 0 1-.129.23v-.001l-1.6 1.758a.5.5 0 0 1-.754.001v-.001a.624.624 0 0 1 .001-.829l-.001.001 1.511-1.66.432-1.424-.032-.028a3.027 3.027 0 0 1-1-2.25v-.04.002-2.663a3.653 3.653 0 0 0-1.067 2.584v.031-.002A.536.536 0 1 1 4 9.554v.002z"/></svg>