<svg xmlns="http://www.w3.org/2000/svg" width="10" height="16"><path fill="#fff" d="M8.498 0h-7.06A1.44 1.44 0 0 0 0 1.438v13.125a1.44 1.44 0 0 0 1.438 1.438h7.06a1.44 1.44 0 0 0 1.438-1.438V1.438A1.44 1.44 0 0 0 8.498 0zM.549 3.091h8.836v9.754H.549zM1.438.549h7.06c.49.001.887.398.887.888v1.104H.549V1.437a.89.89 0 0 1 .889-.888zm7.06 14.902h-7.06a.89.89 0 0 1-.888-.888v-1.167h8.836v1.167a.889.889 0 0 1-.887.888z"/><path fill="#fff" d="M4.966 13.776a.694.694 0 1 0 .694.694.696.696 0 0 0-.694-.694zm0 .867a.17.17 0 1 1 .171-.171.171.171 0 0 1-.171.17zM3.809 2.011a.418.418 0 1 0-.418-.418c0 .231.187.418.418.418zm0-.523a.104.104 0 1 1-.104.104c0-.058.047-.104.104-.105zm.887.366h1.557a.261.261 0 0 0 0-.522H4.696a.261.261 0 0 0 0 .522z"/></svg>