<svg xmlns="http://www.w3.org/2000/svg" width="16" height="16"><path fill="#8a8b8a" d="M7.952 0a6.294 6.294 0 0 0-6.285 6.285c.001.848.187 1.653.518 2.376l-.015-.036a16.01 16.01 0 0 0 2.118 3.508l-.025-.032c.903 1.245 1.899 2.528 2.643 3.643a.572.572 0 0 0 .914.05l.001-.001c.925-1.111 2.207-2.395 3.349-3.634a12.225 12.225 0 0 0 2.511-3.404l.032-.071a5.609 5.609 0 0 0 .527-2.393v-.007A6.294 6.294 0 0 0 7.958-.002h-.001zm0 1.143h.009a5.133 5.133 0 0 1 5.133 5.133v.011-.001.038c0 .694-.158 1.351-.441 1.936l.012-.027-.017.039v.004a12.646 12.646 0 0 1-2.317 3.108l-.002.002c-.957 1.038-1.989 2.114-2.895 3.143-.709-1.013-1.501-2.067-2.247-3.097a15.767 15.767 0 0 1-1.908-3.11l-.041-.098a.281.281 0 0 0-.015-.037v.003a4.394 4.394 0 0 1-.413-1.875v-.037a5.133 5.133 0 0 1 5.133-5.133h.013-.001zm0 2.285a2.857 2.857 0 1 0 2.858 2.858 2.868 2.868 0 0 0-2.857-2.857zm0 1.143h.001a1.715 1.715 0 1 1-1.715 1.716v-.009c0-.942.764-1.706 1.706-1.706h.008z"/></svg>