<svg xmlns="http://www.w3.org/2000/svg" width="15" height="16"><path fill="#fff" d="M.339 14.789a.388.388 0 0 0 .072 0H.409a.408.408 0 0 0 .4-.336v-.002l1.126-6.487a2.561 2.561 0 0 1 1.249-1.781l.013-.007c.338-.196.755-.405 1.183-.592l.085-.033a7.592 7.592 0 0 1 1.286-.445l.056-.012v2.721a2.336 2.336 0 0 0-.276-.093l-.019-.005a.409.409 0 0 0-.221.787l.003.001c.226.058.423.157.593.29l-.004-.003a3.51 3.51 0 0 1-.943.972l-.012.008a.411.411 0 1 0 .469.675l-.001.001A4.312 4.312 0 0 0 6.59 9.207l.01-.018 1.329-2.096a.721.721 0 0 1 1.321.396.716.716 0 0 1-.104.373l.002-.003-.992 1.61a3.778 3.778 0 0 0-.576 2.139v-.006l.002.096a2.997 2.997 0 0 1-1.297 2.47l-.01.007-.108.073a3.833 3.833 0 0 0-1.068 1.105l-.009.015a.411.411 0 0 0 .695.439l.001-.002c.223-.353.506-.648.837-.877l.01-.007.108-.073a3.834 3.834 0 0 0 1.357-1.668l.009-.025.1.1a1.29 1.29 0 0 0 2.148-.516l.002-.009a1.25 1.25 0 0 0 1.452-1.641l.003.009-.02-.057h1.654c.587 0 1.063-.476 1.063-1.063V1.061c0-.587-.476-1.063-1.063-1.063H6.87c-.587 0-1.063.476-1.063 1.063v3.182a8.58 8.58 0 0 0-1.721.569l.054-.022c-.545.239-.988.466-1.416.715l.067-.036a3.375 3.375 0 0 0-1.657 2.347l-.003.02-1.125 6.48a.408.408 0 0 0 .331.471h.002zm9.087-2.069a.473.473 0 0 1-.639-.036l-.433-.441c.027-.17.042-.367.042-.567l-.001-.102v.005l-.001-.084c0-.161.013-.318.037-.472l-.002.017h.457c0 .01.005.018.011.024l.637 1.035a.473.473 0 0 1-.107.619l-.001.001zm1.4-.816a.431.431 0 0 1-.561-.161l-.001-.002c-.013-.023-.024-.046-.038-.069l-.387-.63h1.086l.116.326a.435.435 0 0 1-.213.532l-.002.001zM8.831.816h4.612c.136 0 .247.11.247.247v8.915c0 .136-.11.247-.247.247H8.674c.06-.129.118-.236.182-.339l-.007.013 1-1.605A1.538 1.538 0 0 0 8.84 5.972l-.01-.002zm-2.207.247c0-.136.109-.246.245-.247h1.143V6.04a1.54 1.54 0 0 0-.757.611l-.004.006-.622.979z"/></svg>