<svg xmlns="http://www.w3.org/2000/svg" width="16" height="16"><path fill="#0097d0" d="M14.792 4.568l-1.204-.195a6.517 6.517 0 0 1-.204.729l.014-.048 1.279.207a.723.723 0 0 1 .612.712v8.66c0 .06-.029.112-.074.145h-.001a.18.18 0 0 1-.116.043.188.188 0 0 1-.053-.007h.002l-4.025-.943V9.093l-.091.112-.62.753v3.908l-4.622 1.011v-9.56l1.135-.161a6.133 6.133 0 0 1-.19-.633l-.01-.048-1.259.179-4.179-1.327a.907.907 0 0 0-.815.131l.003-.002a.873.873 0 0 0-.373.716v8.443c0 .593.369 1.101.891 1.304l.01.003 4.307 1.721a.22.22 0 0 0 .041.012h.002c.006 0 .013.004.019.005a.324.324 0 0 0 .142-.003h-.002l5.254-1.15 4.219.989a.887.887 0 0 0 .773-.171l-.002.001a.874.874 0 0 0 .345-.697V5.968a1.424 1.424 0 0 0-1.2-1.404l-.008-.001zM4.978 14.795l-3.811-1.524a.7.7 0 0 1-.456-.656v-.013.001-8.429c0-.062.032-.117.08-.15h.001a.184.184 0 0 1 .111-.039c.024 0 .047.004.068.011H.969l4.01 1.273z"/><path fill="#a5cf4c" d="M10.04 9.207a.373.373 0 0 1-.288-.136l-.001-.001C8.437 7.453 5.618 3.455 7.82 1.253 8.388.685 9.173.334 10.04.334s1.652.351 2.22.919c2.203 2.203-.617 6.2-1.931 7.817a.37.37 0 0 1-.288.137zm0-8.13h-.008c-.659 0-1.255.268-1.686.7-1.663 1.663.582 5.015 1.694 6.459 1.114-1.444 3.357-4.794 1.695-6.457a2.373 2.373 0 0 0-1.687-.701h-.008zm0 4.049a1.686 1.686 0 1 1 1.192-.494 1.67 1.67 0 0 1-1.186.492h-.006zm0-2.629a.943.943 0 1 0 .667.277.934.934 0 0 0-.665-.276h-.002z"/></svg>