<svg xmlns="http://www.w3.org/2000/svg" width="16" height="16"><path fill="#a5cf4c" d="M15.014 12.824a1.575 1.575 0 1 0-1.575 1.575c.87 0 1.575-.705 1.575-1.575zm-2.443 0a.868.868 0 1 1 .868.868.868.868 0 0 1-.868-.868zM5.522 3.972l-.244-1.009A1.88 1.88 0 0 0 3.474 1.6H3.44h.002-1.013l-.019-.001a.355.355 0 0 0 0 .71l.02-.001h-.001H3.46c.512 0 .945.34 1.085.807l.002.008.281 1.115a.182.182 0 0 0-.019.081v.007c0 .095.036.182.094.248l1.349 5.293h6.561l.047.001a2.21 2.21 0 0 0 2.123-1.596l.004-.016 1.125-4.284zm8.753 4.107a1.489 1.489 0 0 1-1.43 1.081h-.034.002-5.961L5.709 4.68h9.447zm-5.154 4.745a1.575 1.575 0 1 0-1.575 1.575c.87 0 1.575-.705 1.575-1.575zm-2.444 0a.868.868 0 1 1 .868.868.868.868 0 0 1-.865-.868zm-5.26-7.679c0 .196.159.354.354.354h1.49a.354.354 0 0 0 0-.708h-1.49a.354.354 0 0 0-.354.354zM.354 7.925h3.435a.354.354 0 0 0 0-.708H.354a.354.354 0 0 0 0 .708zm4.497 2.072a.354.354 0 0 0-.354-.354H2.124a.354.354 0 0 0 0 .708h2.373a.354.354 0 0 0 .354-.354z"/></svg>