<svg xmlns="http://www.w3.org/2000/svg" width="16" height="16"><path fill="#fff" d="M15.373 7.959H.628V6.711h14.745zm-.781 6.463H6.454V9.671a.314.314 0 0 0-.314-.314H3.066a.315.315 0 0 0-.314.314v4.751H1.419V8.586h13.172zM3.38 9.987h2.447v4.436H3.38zM2.086 3.192h11.8L15.2 6.083H.797zm.11-1.563h11.639v.935H2.196zM16 6.387v-.013c0-.004 0-.017-.003-.025s0-.007 0-.01a.318.318 0 0 0-.022-.072l.001.002v-.003l-1.518-3.33a.258.258 0 0 0 .006-.058V1.314A.314.314 0 0 0 14.15 1H1.883a.315.315 0 0 0-.314.314v1.497L.028 6.269a.209.209 0 0 0-.012.033l-.001.002v.002a.22.22 0 0 0-.007.032v.013c0 .004-.007.018-.007.026v1.897c0 .173.14.314.314.314h.477v6.149c0 .173.14.314.314.314h13.8a.315.315 0 0 0 .314-.314v-6.15h.468c.173 0 .313-.14.314-.313V6.389zm-7.686 3.6h4.5v2.631h-4.5zM8 13.246h5.126a.315.315 0 0 0 .314-.314v-3.26a.314.314 0 0 0-.314-.314H8a.315.315 0 0 0-.314.314v3.26c0 .173.14.314.314.314z"/></svg>