<svg xmlns="http://www.w3.org/2000/svg" width="11" height="16"><path fill="#fff" d="M9.707 0H8.068a.257.257 0 0 0-.253.215v.001a2.402 2.402 0 0 1-.786 1.445l-.003.002a2.289 2.289 0 0 1-1.519.573h-.031.002A2.386 2.386 0 0 1 3.136.233L3.134.219a.257.257 0 0 0-.254-.22H1.231C.55-.001-.002.551-.002 1.232v13.535C-.002 15.448.55 16 1.231 16h8.487c.681 0 1.233-.552 1.233-1.233V1.231c0-.681-.552-1.233-1.233-1.233h-.011.001zm0 15.476H1.233a.708.708 0 0 1-.708-.707v-2.088l2.115-.014a.268.268 0 0 0-.002-.536h-.004l-2.11.025V1.232a.708.708 0 0 1 .708-.707h1.424a2.914 2.914 0 0 0 2.815 2.238h.041c.714 0 1.366-.265 1.863-.703l-.003.003c.448-.396.772-.922.915-1.518l.004-.02h1.425c.391 0 .708.317.708.707v10.924l-2.144-.025a.267.267 0 0 0-.262.267v.003c0 .144.116.261.259.264l2.147.017v2.087a.708.708 0 0 1-.708.705h-.01.001z"/><path fill="#fff" d="M6.636 12.186H4.281a.248.248 0 0 0 0 .496h2.364a.248.248 0 1 0 0-.496h-.01zM4.352 8.832a.653.653 0 1 0-.653-.653c0 .361.292.653.653.653zm0-.809a.157.157 0 1 1 0 .314.157.157 0 1 1 0-.314zm2.247.809a.653.653 0 1 0-.653-.653c0 .361.292.653.653.653zm0-.809a.157.157 0 1 1 0 .314.157.157 0 1 1 0-.314z"/><path fill="#fff" d="M7.531 9.592h.094a.828.828 0 0 0 .551-.208l-.001.001a.675.675 0 0 0 .231-.502V5.577a.722.722 0 0 0-.502-.665l-.005-.001-2.14-.74a.866.866 0 0 0-.573 0l.006-.002-2.139.738a.748.748 0 0 0-.507.669v3.308c.002.2.091.379.23.502l.001.001a.828.828 0 0 0 .55.207h.094l-.562.733a.23.23 0 0 0-.017.258l-.001-.001a.295.295 0 0 0 .471.031l.215-.276h3.898l.215.276a.295.295 0 0 0 .385.059l-.001.001a.237.237 0 0 0 .069-.349v.001zm.324-3.693v.745H3.096v-.745zM5.388 4.633a.269.269 0 0 1 .176.001l-.002-.001 2.141.733c.028.01.053.036.074.036H3.174c.022 0 .046-.026.074-.036zM3.095 8.881V7.139h4.758v1.742a.2.2 0 0 1-.069.151.25.25 0 0 1-.164.061H3.328a.245.245 0 0 1-.164-.062.2.2 0 0 1-.069-.15zm.812.958l.182-.248h2.77l.182.248z"/></svg>