<svg xmlns="http://www.w3.org/2000/svg" width="21" height="16"><path fill="#fff" d="M21.088 2.639A2.64 2.64 0 0 0 18.449.001H2.638A2.639 2.639 0 0 0-.001 2.64v10.721A2.639 2.639 0 0 0 2.638 16h15.811a2.639 2.639 0 0 0 2.639-2.639zm-.879 10.724c0 .972-.788 1.759-1.759 1.759H2.639A1.759 1.759 0 0 1 .88 13.363V2.638c0-.972.788-1.759 1.759-1.759H18.45c.972 0 1.759.788 1.759 1.759z"/><path fill="#fff" d="M10.874 4.862H9.473v-.627c0-.607-.492-1.099-1.099-1.099H6.081c-.607 0-1.099.492-1.099 1.099v.627h-1.4c-.972 0-1.759.788-1.759 1.759v4.486c0 .972.788 1.759 1.759 1.759h7.293c.972 0 1.759-.788 1.759-1.759V6.622c0-.972-.788-1.759-1.759-1.759zm-5.015-.627a.22.22 0 0 1 .22-.22h2.295a.22.22 0 0 1 .22.22v.627H5.86zM3.581 5.741h7.293a.88.88 0 0 1 .88.88v.61H2.701v-.609a.88.88 0 0 1 .88-.88h.001zm7.294 6.244H3.581a.88.88 0 0 1-.88-.88V8.111h9.052v2.993a.88.88 0 0 1-.88.88zm3.554-.002h-.368a.44.44 0 0 0 0 .88h.367a.44.44 0 0 0 0-.88zm2.199 0h-.368a.44.44 0 0 0 0 .88h.367a.44.44 0 0 0 0-.88zm2.199 0h-.368a.44.44 0 0 0 0 .88h.367a.44.44 0 0 0 0-.88z"/></svg>