<!-- Generated by IcoMoon.io -->
<svg version="1.1" xmlns="http://www.w3.org/2000/svg" width="21" height="16" viewBox="0 0 21 16">
<title>traveling-white</title>
<path fill="#fff" d="M21.088 2.639c-0.001-1.457-1.182-2.638-2.639-2.638-0 0-0 0-0 0h-15.811c-1.457 0-2.639 1.181-2.639 2.639v0 10.721c0 1.457 1.181 2.639 2.639 2.639v0h15.811c0 0 0 0 0 0 1.457 0 2.639-1.181 2.639-2.639v0zM20.209 13.363c0 0.972-0.788 1.759-1.759 1.759v0h-15.811c-0.972 0-1.759-0.788-1.759-1.759v0-10.725c0-0.972 0.788-1.759 1.759-1.759v0h15.811c0.972 0 1.759 0.788 1.759 1.759v0z"></path>
<path fill="#fff" d="M10.874 4.862h-1.401v-0.627c0-0.607-0.492-1.099-1.099-1.099v0h-2.293c-0.607 0-1.099 0.492-1.099 1.099v0 0.627h-1.4c-0.972 0-1.759 0.788-1.759 1.759v0 4.484c0 0.001 0 0.001 0 0.002 0 0.972 0.788 1.759 1.759 1.759h7.293c0.972 0 1.759-0.788 1.759-1.759v0-4.485c0-0 0-0 0-0 0-0.972-0.788-1.759-1.759-1.759v0zM5.859 4.235c0-0.121 0.098-0.22 0.22-0.22v0h2.295c0.121 0 0.22 0.098 0.22 0.22v0 0.627h-2.734zM3.581 5.741h7.293c0.486 0 0.88 0.394 0.88 0.88 0 0 0 0.001 0 0.001v-0 0.609h-9.053v-0.609c0-0 0-0 0-0 0-0.486 0.394-0.88 0.88-0.88 0 0 0.001 0 0.001 0h-0zM10.875 11.985h-7.294c-0.486 0-0.88-0.394-0.88-0.88v-2.994h9.052v2.993c0 0.486-0.394 0.88-0.88 0.88v0z"></path>
<path fill="#fff" d="M14.429 11.983h-0.368c-0.243 0-0.44 0.197-0.44 0.44s0.197 0.44 0.44 0.44v0h0.367c0.243 0 0.44-0.197 0.44-0.44s-0.197-0.44-0.44-0.44v0z"></path>
<path fill="#fff" d="M16.628 11.983h-0.368c-0.243 0-0.44 0.197-0.44 0.44s0.197 0.44 0.44 0.44v0h0.367c0.243 0 0.44-0.197 0.44-0.44s-0.197-0.44-0.44-0.44v0z"></path>
<path fill="#fff" d="M18.827 11.983h-0.368c-0.243 0-0.44 0.197-0.44 0.44s0.197 0.44 0.44 0.44v0h0.367c0.243 0 0.44-0.197 0.44-0.44s-0.197-0.44-0.44-0.44v0z"></path>
</svg>
