<svg xmlns="http://www.w3.org/2000/svg" width="16" height="16"><path fill="#fff" d="M2.833 7.579C1.2 7.646-.067 9.012 0 10.612a2.969 2.969 0 0 0 2.833 2.833h4.333l-1.033 1.067c-.133.167-.133.4 0 .533s.367.133.5 0l1.633-1.7c.133-.167.133-.4 0-.533l-1.633-1.7s0-.033-.033-.033a.363.363 0 0 0-.5 0c-.133.167-.133.4.033.533l1.033 1.067H2.833c-1.2-.033-2.133-1.067-2.1-2.267a2.182 2.182 0 0 1 2.1-2.1h9.033c.2 0 .367-.2.367-.4s-.167-.367-.367-.367l-9.033.033z"/><path fill="#fff" d="M2.833 7.579C1.2 7.646-.067 9.012 0 10.612a2.969 2.969 0 0 0 2.833 2.833h4.3L6.1 14.512c-.133.167-.133.4 0 .533s.367.133.5 0l1.633-1.7c.133-.167.133-.4 0-.533l-1.633-1.7s0-.033-.033-.033a.363.363 0 0 0-.5 0c-.133.167-.133.4.033.533l1.033 1.067h-4.3c-1.2-.033-2.133-1.067-2.1-2.267.033-1.133.967-2.033 2.1-2.1h9c.2 0 .367-.2.367-.4s-.167-.367-.367-.367l-9 .033z"/><path fill="#fff" d="M4.43.667a2.077 2.077 0 0 0-2.067 2.067c0 1.167.933 2.1 2.067 2.1 1 0 1.867-.7 2.033-1.7h6.567c1.2 0 2.167.967 2.167 2.167v.033c.067 1.133-.833 2.133-1.967 2.167h-.1c-.2 0-.367.167-.367.367s.167.367.367.367c1.6 0 2.867-1.3 2.833-2.9v-.033c0-1.633-1.3-2.933-2.933-2.933H6.497A2.11 2.11 0 0 0 4.43.669zm0 .766c.733 0 1.333.6 1.333 1.333s-.6 1.333-1.333 1.333-1.333-.6-1.333-1.333c.033-.733.6-1.333 1.333-1.333zm6.71 12.918c-1.167 0-2.1-.933-2.1-2.067s.933-2.1 2.1-2.1 2.1.933 2.1 2.1-.967 2.067-2.1 2.067zm0-3.5c-.8 0-1.433.633-1.433 1.433s.633 1.433 1.433 1.433 1.433-.633 1.433-1.433c-.033-.8-.667-1.433-1.433-1.433z"/></svg>