<svg xmlns="http://www.w3.org/2000/svg" width="16" height="16"><path fill="#8a8b8a" d="M7.167 11.167c-1.267 0-2.267-.233-2.767-.6-.1-.1-.167-.267-.1-.4a.41.41 0 0 1 .367-.233c.3 0 .6-.033.867-.133-.4-.2-.733-.567-.867-1-.067-.167 0-.333.133-.4.033-.033.067-.033.1-.067a2.558 2.558 0 0 1-.5-.867c-.033-.167.033-.3.167-.4.067-.033.1-.033.167-.033a1.627 1.627 0 0 1-.133-.433c-.067-.4 0-.833.2-1.2l.033-.1c.067-.133.233-.2.367-.133.033 0 .033.033.067.067l.1.1a3.956 3.956 0 0 0 2.333 1.267c.033-.4.233-.767.5-1.067a1.946 1.946 0 0 1 1.267-.567c.367.033.733.167 1.033.333.233-.067.5-.2.767-.3.133-.067.3-.033.4.067s.133.267.067.367c-.033.067-.033.1-.067.167.033.033.067.033.1.067.1.1.133.233.1.367-.1.333-.3.6-.6.8-.033 2.367-1.867 4.333-4.1 4.333zM4.833 10.3c.467.267 1.3.4 2.333.4 1 0 1.933-.433 2.6-1.167.7-.767 1.1-1.8 1.1-2.867 0-.1.067-.2.133-.233a.92.92 0 0 0 .4-.467c-.133.033-.267-.067-.3-.233 0-.067 0-.133.033-.2s.067-.1.1-.167c-.233.1-.467.2-.667.267-.067.033-.167 0-.233-.033a2.63 2.63 0 0 0-.9-.333 1.394 1.394 0 0 0-1.333 1.4.287.287 0 0 1-.267.267h-.067a4.45 4.45 0 0 1-2.667-1.333c-.1.233-.133.5-.1.767.067.267.2.533.4.733.1.1.1.267-.033.367-.067.067-.167.067-.233.067-.1-.033-.167-.067-.233-.1.167.367.433.667.767.867.133.067.167.233.067.367-.067.067-.133.133-.233.1a.97.97 0 0 1-.333-.067c.167.367.533.633.967.667.133.033.233.167.2.3 0 .067-.067.133-.133.2-.433.3-.9.433-1.367.433z"/><path fill="#8a8b8a" d="M8 16c-4.4 0-8-3.6-8-8s3.6-8 8-8 8 3.6 8 8-3.6 8-8 8zM8 .667C3.967.667.667 3.967.667 8s3.3 7.333 7.333 7.333 7.333-3.3 7.333-7.333S12.033.667 8 .667z"/></svg>