<svg xmlns="http://www.w3.org/2000/svg" width="16" height="16"><path fill="#8a8b8a" d="M9.269 7.998l-1.7-.933c-.167-.067-.333-.033-.433.133-.033.033-.033.1-.033.133v1.833c0 .167.133.3.3.3.067 0 .1 0 .133-.033l1.7-.9c.167-.067.2-.267.133-.433 0-.033-.067-.067-.1-.1zm-1.7.967v-1.4l1.267.7-1.267.7z"/><path fill="#8a8b8a" d="M11.869 6.798a1.744 1.744 0 0 0-.333-.9 1.315 1.315 0 0 0-.833-.4h-.033c-1.033-.067-2.567-.067-2.6-.067 0 0-1.533 0-2.567.1H5.47c-.333 0-.633.167-.833.4-.2.267-.3.567-.333.867 0 .033-.067.633-.067 1.267v.567c0 .6.067 1.233.067 1.267.033.333.133.633.333.867.233.233.533.367.867.367h.1c.6.067 2.433.067 2.5.1 0 0 1.533 0 2.567-.1h.033c.3-.033.6-.167.8-.4.2-.267.3-.567.333-.867 0-.033.067-.633.067-1.267v-.533c.033-.633-.033-1.233-.033-1.267zm-.4 1.834c0 .567-.033 1.167-.067 1.2a1.46 1.46 0 0 1-.233.633.66.66 0 0 1-.533.233h-.033c-.967.067-2.467.067-2.533.067s-1.9-.033-2.467-.067h-.1c-.2 0-.433-.1-.567-.233a1.1 1.1 0 0 1-.2-.633c0-.033-.067-.633-.067-1.2v-.567c0-.567.033-1.167.067-1.2.033-.233.1-.433.233-.633.133-.167.333-.233.533-.267h.033c1-.067 2.5-.067 2.533-.067s1.533 0 2.533.067h.033c.2 0 .4.1.567.233.133.2.2.4.2.633 0 .033.067.633.067 1.2v.6z"/><path fill="#8a8b8a" d="M8 16c-4.4 0-8-3.6-8-8s3.6-8 8-8 8 3.6 8 8-3.6 8-8 8zM8 .667C3.967.667.667 3.967.667 8s3.3 7.333 7.333 7.333 7.333-3.3 7.333-7.333S12.033.667 8 .667z"/></svg>